<svg id="svg" version="1.1" xmlns="http://www.w3.org/2000/svg" xmlns:xlink="http://www.w3.org/1999/xlink" width="400" height="400" viewBox="0, 0, 400,400"><g id="svgg"><path id="path0" d="M179.200 8.835 C 177.330 8.998,174.360 9.333,172.600 9.580 C 170.840 9.827,168.500 10.129,167.400 10.252 C 166.300 10.374,165.229 10.637,165.020 10.837 C 164.811 11.037,163.877 11.200,162.944 11.200 C 162.011 11.200,161.136 11.380,161.000 11.600 C 160.864 11.820,160.043 12.000,159.176 12.000 C 158.309 12.000,157.600 12.162,157.600 12.360 C 157.600 12.558,156.835 12.811,155.900 12.924 C 154.965 13.036,153.390 13.338,152.400 13.593 C 151.410 13.849,150.015 14.154,149.300 14.273 C 148.585 14.391,148.000 14.648,148.000 14.844 C 148.000 15.040,147.471 15.200,146.824 15.200 C 146.177 15.200,145.536 15.380,145.400 15.600 C 145.264 15.820,144.623 16.000,143.976 16.000 C 143.329 16.000,142.800 16.180,142.800 16.400 C 142.800 16.620,142.260 16.800,141.600 16.800 C 140.940 16.800,140.400 16.980,140.400 17.200 C 140.400 17.420,139.860 17.600,139.200 17.600 C 138.540 17.600,138.000 17.780,138.000 18.000 C 138.000 18.220,137.460 18.400,136.800 18.400 C 136.140 18.400,135.600 18.580,135.600 18.800 C 135.600 19.020,135.060 19.200,134.400 19.200 C 133.740 19.200,133.200 19.380,133.200 19.600 C 133.200 19.820,132.840 20.000,132.400 20.000 C 131.960 20.000,131.600 20.180,131.600 20.400 C 131.600 20.620,131.060 20.800,130.400 20.800 C 129.740 20.800,129.200 20.980,129.200 21.200 C 129.200 21.420,128.851 21.600,128.424 21.600 C 127.997 21.600,127.536 21.780,127.400 22.000 C 127.264 22.220,126.803 22.400,126.376 22.400 C 125.949 22.400,125.600 22.580,125.600 22.800 C 125.600 23.020,125.240 23.200,124.800 23.200 C 124.360 23.200,124.000 23.380,124.000 23.600 C 124.000 23.820,123.561 24.000,123.024 24.000 C 122.487 24.000,121.936 24.180,121.800 24.400 C 121.664 24.620,121.293 24.800,120.974 24.800 C 120.656 24.800,119.463 25.250,118.323 25.800 C 117.183 26.350,116.014 26.800,115.725 26.800 C 115.436 26.800,115.200 26.980,115.200 27.200 C 115.200 27.420,114.840 27.600,114.400 27.600 C 113.960 27.600,113.599 27.735,113.599 27.900 C 113.598 28.065,112.608 28.650,111.400 29.200 C 110.192 29.750,109.202 30.335,109.201 30.500 C 109.201 30.665,108.840 30.800,108.400 30.800 C 107.960 30.800,107.600 30.980,107.600 31.200 C 107.600 31.420,107.364 31.600,107.075 31.600 C 106.787 31.600,106.164 31.960,105.692 32.400 C 105.220 32.840,104.556 33.200,104.217 33.200 C 103.878 33.200,103.600 33.380,103.600 33.600 C 103.600 33.820,103.240 34.000,102.800 34.000 C 102.360 34.000,102.000 34.180,102.000 34.400 C 102.000 34.620,101.764 34.800,101.475 34.800 C 101.187 34.800,100.564 35.160,100.092 35.600 C 99.620 36.040,98.996 36.400,98.705 36.400 C 98.414 36.400,97.917 36.760,97.600 37.200 C 97.283 37.640,96.786 38.000,96.495 38.000 C 96.204 38.000,95.580 38.360,95.108 38.800 C 94.636 39.240,94.013 39.600,93.725 39.600 C 93.436 39.600,93.200 39.780,93.200 40.000 C 93.200 40.220,92.996 40.400,92.747 40.400 C 92.498 40.400,92.003 40.733,91.647 41.141 C 91.291 41.548,90.379 42.202,89.620 42.593 C 88.860 42.984,87.992 43.550,87.691 43.852 C 87.390 44.153,86.984 44.400,86.790 44.400 C 86.595 44.400,85.986 44.850,85.436 45.400 C 84.886 45.950,84.270 46.400,84.066 46.400 C 83.863 46.400,82.955 47.120,82.048 48.000 C 81.141 48.880,80.241 49.600,80.048 49.600 C 79.855 49.600,78.955 50.320,78.048 51.200 C 77.141 52.080,76.299 52.800,76.177 52.800 C 76.055 52.800,74.896 53.880,73.600 55.200 C 72.304 56.520,71.090 57.600,70.900 57.600 C 69.977 57.600,58.400 69.058,58.400 69.972 C 58.400 70.174,57.140 71.614,55.600 73.172 C 54.060 74.731,52.800 76.094,52.800 76.202 C 52.800 76.311,52.080 77.141,51.200 78.048 C 50.320 78.955,49.600 79.855,49.600 80.048 C 49.600 80.241,48.880 81.141,48.000 82.048 C 47.120 82.955,46.400 83.863,46.400 84.066 C 46.400 84.270,45.950 84.886,45.400 85.436 C 44.850 85.986,44.400 86.595,44.400 86.790 C 44.400 86.984,44.153 87.390,43.852 87.691 C 43.550 87.992,42.984 88.860,42.593 89.620 C 42.202 90.379,41.548 91.291,41.141 91.647 C 40.733 92.003,40.400 92.498,40.400 92.747 C 40.400 92.996,40.220 93.200,40.000 93.200 C 39.780 93.200,39.600 93.436,39.600 93.725 C 39.600 94.013,39.228 94.649,38.773 95.137 C 38.318 95.625,38.006 96.334,38.079 96.712 C 38.203 97.361,47.381 97.406,200.105 97.500 L 362.000 97.601 362.000 96.784 C 362.000 96.334,361.640 95.580,361.200 95.108 C 360.760 94.636,360.400 94.013,360.400 93.725 C 360.400 93.436,360.220 93.200,360.000 93.200 C 359.780 93.200,359.600 92.996,359.600 92.747 C 359.600 92.498,359.267 92.003,358.859 91.647 C 358.452 91.291,357.798 90.379,357.407 89.620 C 357.016 88.860,356.450 87.992,356.148 87.691 C 355.847 87.390,355.600 86.984,355.600 86.790 C 355.600 86.595,355.150 85.986,354.600 85.436 C 354.050 84.886,353.600 84.270,353.600 84.066 C 353.600 83.863,352.880 82.955,352.000 82.048 C 351.120 81.141,350.400 80.241,350.400 80.048 C 350.400 79.855,349.680 78.955,348.800 78.048 C 347.920 77.141,347.200 76.299,347.200 76.177 C 347.200 76.055,346.120 74.896,344.800 73.600 C 343.480 72.304,342.400 71.090,342.400 70.900 C 342.400 69.977,330.942 58.400,330.028 58.400 C 329.826 58.400,328.386 57.140,326.828 55.600 C 325.269 54.060,323.888 52.800,323.758 52.800 C 323.627 52.800,323.044 52.298,322.460 51.685 C 321.877 51.071,320.770 50.128,320.000 49.589 C 319.230 49.050,318.078 48.112,317.441 47.504 C 316.803 46.897,316.120 46.400,315.922 46.400 C 315.725 46.400,315.114 45.950,314.564 45.400 C 314.014 44.850,313.405 44.400,313.210 44.400 C 313.016 44.400,312.610 44.153,312.309 43.852 C 312.008 43.550,311.140 42.984,310.380 42.593 C 309.621 42.202,308.709 41.548,308.353 41.141 C 307.997 40.733,307.502 40.400,307.253 40.400 C 307.004 40.400,306.800 40.220,306.800 40.000 C 306.800 39.780,306.564 39.600,306.275 39.600 C 305.987 39.600,305.364 39.240,304.892 38.800 C 304.420 38.360,303.796 38.000,303.505 38.000 C 303.214 38.000,302.717 37.640,302.400 37.200 C 302.083 36.760,301.586 36.400,301.295 36.400 C 301.004 36.400,300.380 36.040,299.908 35.600 C 299.436 35.160,298.813 34.800,298.525 34.800 C 298.236 34.800,298.000 34.620,298.000 34.400 C 298.000 34.180,297.640 34.000,297.200 34.000 C 296.760 34.000,296.400 33.820,296.400 33.600 C 296.400 33.380,296.080 33.200,295.688 33.200 C 295.297 33.200,294.717 32.840,294.400 32.400 C 294.083 31.960,293.503 31.600,293.112 31.600 C 292.720 31.600,292.400 31.420,292.400 31.200 C 292.400 30.980,292.040 30.800,291.600 30.800 C 291.160 30.800,290.799 30.665,290.799 30.500 C 290.798 30.335,289.808 29.750,288.600 29.200 C 287.392 28.650,286.402 28.065,286.401 27.900 C 286.401 27.735,286.040 27.600,285.600 27.600 C 285.160 27.600,284.800 27.420,284.800 27.200 C 284.800 26.980,284.564 26.800,284.275 26.800 C 283.986 26.800,282.817 26.350,281.677 25.800 C 280.537 25.250,279.333 24.800,279.002 24.800 C 278.671 24.800,278.400 24.620,278.400 24.400 C 278.400 24.180,277.860 24.000,277.200 24.000 C 276.540 24.000,276.000 23.820,276.000 23.600 C 276.000 23.380,275.640 23.200,275.200 23.200 C 274.760 23.200,274.400 23.020,274.400 22.800 C 274.400 22.580,274.040 22.400,273.600 22.400 C 273.160 22.400,272.800 22.220,272.800 22.000 C 272.800 21.780,272.350 21.600,271.800 21.600 C 271.250 21.600,270.800 21.420,270.800 21.200 C 270.800 20.980,270.361 20.800,269.824 20.800 C 269.287 20.800,268.736 20.620,268.600 20.400 C 268.464 20.180,268.003 20.000,267.576 20.000 C 267.149 20.000,266.800 19.820,266.800 19.600 C 266.800 19.380,266.260 19.200,265.600 19.200 C 264.940 19.200,264.400 19.020,264.400 18.800 C 264.400 18.580,263.860 18.400,263.200 18.400 C 262.540 18.400,262.000 18.220,262.000 18.000 C 262.000 17.780,261.460 17.600,260.800 17.600 C 260.140 17.600,259.600 17.420,259.600 17.200 C 259.600 16.980,259.161 16.800,258.624 16.800 C 258.087 16.800,257.536 16.620,257.400 16.400 C 257.264 16.180,256.623 16.000,255.976 16.000 C 255.329 16.000,254.800 15.820,254.800 15.600 C 254.800 15.380,254.170 15.200,253.400 15.200 C 252.630 15.200,252.000 15.020,252.000 14.800 C 252.000 14.580,251.381 14.400,250.624 14.400 C 249.867 14.400,249.148 14.240,249.027 14.044 C 248.820 13.708,247.807 13.472,244.297 12.942 C 243.471 12.818,242.695 12.555,242.574 12.358 C 242.452 12.161,241.654 12.000,240.800 12.000 C 239.946 12.000,239.136 11.820,239.000 11.600 C 238.864 11.380,237.989 11.200,237.056 11.200 C 236.123 11.200,235.189 11.037,234.980 10.837 C 234.771 10.637,233.700 10.372,232.600 10.248 C 231.500 10.124,229.250 9.839,227.600 9.615 C 225.950 9.391,222.710 9.037,220.400 8.829 C 215.538 8.391,184.234 8.395,179.200 8.835 M36.014 157.974 C 35.438 159.049,35.438 240.951,36.014 242.026 C 36.394 242.736,36.903 242.800,42.200 242.800 C 47.497 242.800,48.006 242.736,48.386 242.026 C 48.652 241.529,48.800 235.342,48.800 224.688 C 48.800 209.149,48.845 208.083,49.531 207.462 C 50.706 206.399,75.971 206.463,76.938 207.531 C 77.531 208.187,77.600 209.954,77.600 224.513 C 77.600 235.992,77.736 241.061,78.064 241.781 L 78.528 242.800 84.384 242.800 C 88.405 242.800,90.390 242.650,90.720 242.320 C 91.416 241.624,91.416 158.376,90.720 157.680 C 90.390 157.350,88.405 157.200,84.384 157.200 L 78.528 157.200 78.064 158.219 C 77.736 158.939,77.600 164.025,77.600 175.557 C 77.600 190.859,77.554 191.917,76.869 192.538 C 75.694 193.601,50.429 193.537,49.462 192.469 C 48.869 191.813,48.800 190.029,48.800 175.242 C 48.800 164.637,48.652 158.471,48.386 157.974 C 48.006 157.264,47.497 157.200,42.200 157.200 C 36.903 157.200,36.394 157.264,36.014 157.974 M98.790 158.226 C 98.260 159.621,98.260 240.379,98.790 241.774 L 99.180 242.800 126.340 242.800 L 153.500 242.800 153.750 241.550 C 154.142 239.592,154.043 232.164,153.610 231.026 L 153.220 230.000 133.464 230.000 L 113.709 230.000 112.655 228.945 L 111.600 227.891 111.600 218.399 C 111.600 209.403,111.643 208.853,112.429 207.854 L 113.258 206.800 132.858 206.800 C 156.308 206.800,153.800 207.614,153.800 200.000 C 153.800 192.386,156.308 193.200,132.858 193.200 L 113.258 193.200 112.429 192.146 C 111.643 191.147,111.600 190.597,111.600 181.601 L 111.600 172.109 112.655 171.055 L 113.709 170.000 133.464 170.000 L 153.220 170.000 153.610 168.974 C 154.043 167.836,154.142 160.408,153.750 158.450 L 153.500 157.200 126.340 157.200 L 99.180 157.200 98.790 158.226 M161.696 157.995 C 160.941 159.203,161.000 241.104,161.757 242.100 C 162.536 243.126,216.164 243.192,216.557 242.167 C 217.027 240.942,216.825 230.985,216.320 230.480 C 215.960 230.120,210.981 230.000,196.374 230.000 C 177.286 230.000,176.887 229.984,175.854 229.171 L 174.800 228.342 174.787 193.471 C 174.777 165.109,174.675 158.469,174.243 157.900 C 173.386 156.770,162.409 156.853,161.696 157.995 M224.588 157.690 C 224.481 157.970,224.440 177.190,224.497 200.400 L 224.600 242.600 252.000 242.600 L 279.400 242.600 279.511 236.855 C 279.587 232.959,279.474 230.931,279.162 230.555 C 278.782 230.096,275.355 230.000,259.325 230.000 C 246.882 230.000,239.674 229.854,239.183 229.591 C 237.379 228.625,237.410 229.223,237.200 192.400 L 237.000 157.400 230.891 157.290 C 226.224 157.205,224.737 157.300,224.588 157.690 M302.400 157.675 C 301.850 157.906,301.040 158.230,300.600 158.394 C 299.312 158.875,297.417 159.780,297.200 160.019 C 297.090 160.140,296.370 160.673,295.600 161.203 C 292.352 163.442,289.939 166.843,287.942 172.000 C 287.505 173.128,287.400 178.571,287.400 200.000 C 287.400 221.429,287.505 226.872,287.942 228.000 C 288.952 230.608,290.918 234.400,291.260 234.400 C 291.447 234.400,291.600 234.586,291.600 234.813 C 291.600 235.857,298.386 241.200,299.711 241.200 C 300.017 241.200,300.390 241.323,300.541 241.474 C 301.804 242.738,326.262 243.594,327.000 242.400 C 327.136 242.180,327.676 242.000,328.200 242.000 C 328.724 242.000,329.264 241.820,329.400 241.600 C 329.536 241.380,329.997 241.200,330.424 241.200 C 330.851 241.200,331.200 241.064,331.200 240.898 C 331.200 240.731,331.785 240.341,332.500 240.030 C 334.063 239.351,339.600 233.879,339.600 233.013 C 339.600 232.676,339.736 232.400,339.902 232.400 C 340.069 232.400,340.444 231.815,340.736 231.100 C 341.028 230.385,341.420 229.440,341.606 229.000 C 342.442 227.029,342.542 223.937,342.542 200.000 C 342.542 176.063,342.442 172.971,341.606 171.000 C 341.420 170.560,341.028 169.615,340.736 168.900 C 340.444 168.185,340.069 167.600,339.902 167.600 C 339.736 167.600,339.600 167.324,339.600 166.987 C 339.600 166.121,334.063 160.649,332.500 159.970 C 331.785 159.659,331.200 159.269,331.200 159.102 C 331.200 158.936,330.851 158.800,330.424 158.800 C 329.997 158.800,329.536 158.620,329.400 158.400 C 329.264 158.180,328.724 158.000,328.200 158.000 C 327.676 158.000,327.136 157.820,327.000 157.600 C 326.657 157.046,303.729 157.116,302.400 157.675 M351.680 157.680 C 350.855 158.505,351.000 221.343,351.829 222.171 C 352.337 222.680,353.476 222.800,357.800 222.800 C 362.124 222.800,363.263 222.680,363.771 222.171 C 364.414 221.529,364.786 159.472,364.157 157.833 C 363.845 157.018,352.481 156.879,351.680 157.680 M324.467 170.756 C 326.499 171.643,327.721 172.728,328.696 174.512 C 329.791 176.515,329.776 223.015,328.680 225.303 C 326.757 229.316,324.767 230.002,315.067 229.994 C 299.653 229.982,300.346 231.436,300.491 199.419 L 300.600 175.268 301.800 173.594 C 302.460 172.673,303.540 171.641,304.200 171.300 C 304.860 170.959,305.670 170.537,306.000 170.363 C 307.391 169.630,322.629 169.954,324.467 170.756 M351.829 229.429 C 351.022 230.236,350.891 241.531,351.680 242.320 C 352.481 243.121,363.845 242.982,364.157 242.167 C 364.737 240.657,364.416 230.074,363.771 229.429 C 362.849 228.506,352.751 228.506,351.829 229.429 M38.267 302.667 C 37.781 303.152,37.989 304.022,38.800 304.892 C 39.240 305.364,39.600 305.987,39.600 306.275 C 39.600 306.564,39.780 306.800,40.000 306.800 C 40.220 306.800,40.400 307.004,40.400 307.253 C 40.400 307.502,40.733 307.997,41.141 308.353 C 41.548 308.709,42.202 309.621,42.593 310.380 C 42.984 311.140,43.550 312.008,43.852 312.309 C 44.153 312.610,44.400 313.016,44.400 313.210 C 44.400 313.405,44.850 314.014,45.400 314.564 C 45.950 315.114,46.400 315.730,46.400 315.934 C 46.400 316.137,47.120 317.045,48.000 317.952 C 48.880 318.859,49.600 319.759,49.600 319.952 C 49.600 320.145,50.320 321.045,51.200 321.952 C 52.080 322.859,52.800 323.701,52.800 323.823 C 52.800 323.945,53.835 325.070,55.100 326.325 C 56.365 327.579,58.158 329.594,59.084 330.802 C 61.717 334.239,69.171 341.600,70.018 341.600 C 70.194 341.600,71.614 342.860,73.172 344.400 C 74.731 345.940,76.094 347.200,76.202 347.200 C 76.311 347.200,77.141 347.920,78.048 348.800 C 78.955 349.680,79.855 350.400,80.048 350.400 C 80.241 350.400,81.141 351.120,82.048 352.000 C 82.955 352.880,83.863 353.600,84.066 353.600 C 84.270 353.600,84.886 354.050,85.436 354.600 C 85.986 355.150,86.595 355.600,86.790 355.600 C 86.984 355.600,87.390 355.847,87.691 356.148 C 87.992 356.450,88.860 357.016,89.620 357.407 C 90.379 357.798,91.291 358.452,91.647 358.859 C 92.003 359.267,92.498 359.600,92.747 359.600 C 92.996 359.600,93.200 359.780,93.200 360.000 C 93.200 360.220,93.436 360.400,93.725 360.400 C 94.013 360.400,94.636 360.760,95.108 361.200 C 95.580 361.640,96.204 362.000,96.495 362.000 C 96.786 362.000,97.283 362.360,97.600 362.800 C 97.917 363.240,98.497 363.600,98.888 363.600 C 99.280 363.600,99.600 363.780,99.600 364.000 C 99.600 364.220,99.836 364.400,100.125 364.400 C 100.413 364.400,101.036 364.760,101.508 365.200 C 101.980 365.640,102.644 366.000,102.983 366.000 C 103.322 366.000,103.600 366.180,103.600 366.400 C 103.600 366.620,103.878 366.800,104.217 366.800 C 104.556 366.800,105.220 367.160,105.692 367.600 C 106.164 368.040,106.787 368.400,107.075 368.400 C 107.364 368.400,107.600 368.580,107.600 368.800 C 107.600 369.020,107.960 369.200,108.400 369.200 C 108.840 369.200,109.201 369.335,109.201 369.500 C 109.202 369.665,110.192 370.250,111.400 370.800 C 112.608 371.350,113.598 371.935,113.599 372.100 C 113.599 372.265,113.960 372.400,114.400 372.400 C 114.840 372.400,115.200 372.580,115.200 372.800 C 115.200 373.020,115.436 373.200,115.725 373.200 C 116.014 373.200,117.183 373.650,118.323 374.200 C 119.463 374.750,120.656 375.200,120.974 375.200 C 121.293 375.200,121.664 375.380,121.800 375.600 C 121.936 375.820,122.487 376.000,123.024 376.000 C 123.561 376.000,124.000 376.180,124.000 376.400 C 124.000 376.620,124.360 376.800,124.800 376.800 C 125.240 376.800,125.600 376.980,125.600 377.200 C 125.600 377.420,125.949 377.600,126.376 377.600 C 126.803 377.600,127.264 377.780,127.400 378.000 C 127.536 378.220,127.997 378.400,128.424 378.400 C 128.851 378.400,129.200 378.580,129.200 378.800 C 129.200 379.020,129.740 379.200,130.400 379.200 C 131.060 379.200,131.600 379.380,131.600 379.600 C 131.600 379.820,131.960 380.000,132.400 380.000 C 132.840 380.000,133.200 380.180,133.200 380.400 C 133.200 380.620,133.740 380.800,134.400 380.800 C 135.060 380.800,135.600 380.980,135.600 381.200 C 135.600 381.420,136.140 381.600,136.800 381.600 C 137.460 381.600,138.000 381.780,138.000 382.000 C 138.000 382.220,138.540 382.400,139.200 382.400 C 139.860 382.400,140.400 382.580,140.400 382.800 C 140.400 383.020,140.940 383.200,141.600 383.200 C 142.260 383.200,142.800 383.380,142.800 383.600 C 142.800 383.820,143.329 384.000,143.976 384.000 C 144.623 384.000,145.264 384.180,145.400 384.400 C 145.536 384.620,146.177 384.800,146.824 384.800 C 147.471 384.800,148.000 384.980,148.000 385.200 C 148.000 385.420,148.619 385.600,149.376 385.600 C 150.133 385.600,150.852 385.760,150.973 385.956 C 151.191 386.309,152.640 386.634,155.900 387.059 C 156.835 387.181,157.600 387.442,157.600 387.640 C 157.600 387.838,158.309 388.000,159.176 388.000 C 160.043 388.000,160.864 388.180,161.000 388.400 C 161.136 388.620,162.137 388.800,163.224 388.800 C 164.311 388.800,165.200 388.963,165.200 389.163 C 165.200 389.363,166.145 389.627,167.300 389.750 C 168.455 389.872,170.750 390.152,172.400 390.370 C 174.050 390.588,177.290 390.945,179.600 391.163 C 185.002 391.673,214.910 391.675,220.400 391.166 C 222.710 390.951,225.770 390.673,227.200 390.546 C 228.630 390.420,229.971 390.155,230.180 389.958 C 230.389 389.761,231.514 389.600,232.680 389.600 C 233.846 389.600,234.800 389.420,234.800 389.200 C 234.800 388.980,235.689 388.800,236.776 388.800 C 237.863 388.800,238.864 388.620,239.000 388.400 C 239.136 388.180,239.957 388.000,240.824 388.000 C 241.691 388.000,242.400 387.820,242.400 387.600 C 242.400 387.380,243.109 387.200,243.976 387.200 C 244.843 387.200,245.664 387.020,245.800 386.800 C 245.936 386.580,246.656 386.400,247.400 386.400 C 248.144 386.400,248.864 386.220,249.000 386.000 C 249.136 385.780,249.867 385.600,250.624 385.600 C 251.381 385.600,252.000 385.420,252.000 385.200 C 252.000 384.980,252.630 384.800,253.400 384.800 C 254.170 384.800,254.800 384.620,254.800 384.400 C 254.800 384.180,255.340 384.000,256.000 384.000 C 256.660 384.000,257.200 383.820,257.200 383.600 C 257.200 383.380,257.740 383.200,258.400 383.200 C 259.060 383.200,259.600 383.020,259.600 382.800 C 259.600 382.580,260.140 382.400,260.800 382.400 C 261.460 382.400,262.000 382.220,262.000 382.000 C 262.000 381.780,262.540 381.600,263.200 381.600 C 263.860 381.600,264.400 381.420,264.400 381.200 C 264.400 380.980,264.940 380.800,265.600 380.800 C 266.260 380.800,266.800 380.620,266.800 380.400 C 266.800 380.180,267.149 380.000,267.576 380.000 C 268.003 380.000,268.464 379.820,268.600 379.600 C 268.736 379.380,269.287 379.200,269.824 379.200 C 270.361 379.200,270.800 379.020,270.800 378.800 C 270.800 378.580,271.149 378.400,271.576 378.400 C 272.003 378.400,272.464 378.220,272.600 378.000 C 272.736 377.780,273.197 377.600,273.624 377.600 C 274.051 377.600,274.400 377.420,274.400 377.200 C 274.400 376.980,274.760 376.800,275.200 376.800 C 275.640 376.800,276.000 376.620,276.000 376.400 C 276.000 376.180,276.540 376.000,277.200 376.000 C 277.860 376.000,278.400 375.820,278.400 375.600 C 278.400 375.380,278.671 375.200,279.002 375.200 C 279.333 375.200,280.537 374.750,281.677 374.200 C 282.817 373.650,283.986 373.200,284.275 373.200 C 284.564 373.200,284.800 373.020,284.800 372.800 C 284.800 372.580,285.160 372.400,285.600 372.400 C 286.040 372.400,286.401 372.265,286.401 372.100 C 286.402 371.935,287.392 371.350,288.600 370.800 C 289.808 370.250,290.798 369.665,290.799 369.500 C 290.799 369.335,291.160 369.200,291.600 369.200 C 292.040 369.200,292.400 369.020,292.400 368.800 C 292.400 368.580,292.720 368.400,293.112 368.400 C 293.503 368.400,294.083 368.040,294.400 367.600 C 294.717 367.160,295.297 366.800,295.688 366.800 C 296.080 366.800,296.400 366.620,296.400 366.400 C 296.400 366.180,296.760 366.000,297.200 366.000 C 297.640 366.000,298.000 365.820,298.000 365.600 C 298.000 365.380,298.236 365.200,298.525 365.200 C 298.813 365.200,299.436 364.840,299.908 364.400 C 300.380 363.960,301.004 363.600,301.295 363.600 C 301.586 363.600,302.083 363.240,302.400 362.800 C 302.717 362.360,303.214 362.000,303.505 362.000 C 303.796 362.000,304.420 361.640,304.892 361.200 C 305.364 360.760,305.987 360.400,306.275 360.400 C 306.564 360.400,306.800 360.220,306.800 360.000 C 306.800 359.780,307.004 359.600,307.253 359.600 C 307.502 359.600,307.997 359.267,308.353 358.859 C 308.709 358.452,309.621 357.798,310.380 357.407 C 311.140 357.016,312.008 356.450,312.309 356.148 C 312.610 355.847,313.016 355.600,313.210 355.600 C 313.405 355.600,314.014 355.150,314.564 354.600 C 315.114 354.050,315.730 353.600,315.934 353.600 C 316.137 353.600,317.045 352.880,317.952 352.000 C 318.859 351.120,319.759 350.400,319.952 350.400 C 320.145 350.400,321.045 349.680,321.952 348.800 C 322.859 347.920,323.701 347.200,323.823 347.200 C 323.945 347.200,325.069 346.161,326.322 344.890 C 327.575 343.620,329.230 342.141,330.000 341.604 C 333.032 339.488,341.600 330.938,341.600 330.028 C 341.600 329.826,342.860 328.386,344.400 326.828 C 345.940 325.269,347.200 323.906,347.200 323.798 C 347.200 323.689,347.920 322.859,348.800 321.952 C 349.680 321.045,350.400 320.145,350.400 319.952 C 350.400 319.759,351.120 318.859,352.000 317.952 C 352.880 317.045,353.600 316.137,353.600 315.934 C 353.600 315.730,354.050 315.114,354.600 314.564 C 355.150 314.014,355.600 313.405,355.600 313.210 C 355.600 313.016,355.847 312.610,356.148 312.309 C 356.450 312.008,357.016 311.140,357.407 310.380 C 357.798 309.621,358.452 308.709,358.859 308.353 C 359.267 307.997,359.600 307.502,359.600 307.253 C 359.600 307.004,359.780 306.800,360.000 306.800 C 360.220 306.800,360.400 306.564,360.400 306.275 C 360.400 305.987,360.760 305.364,361.200 304.892 C 363.605 302.311,364.358 302.400,340.074 302.400 L 318.147 302.400 317.212 304.100 C 305.771 324.893,284.462 343.370,262.000 351.974 C 260.130 352.690,258.240 353.419,257.800 353.595 C 254.594 354.870,244.392 357.450,239.600 358.196 C 226.732 360.201,219.688 360.011,218.276 357.621 C 216.544 354.689,217.403 353.350,223.732 349.118 C 227.940 346.304,231.312 343.890,232.000 343.199 C 232.110 343.089,233.479 341.965,235.042 340.701 C 238.344 338.032,245.600 330.618,248.851 326.589 C 254.071 320.124,260.917 309.181,262.923 304.100 L 263.594 302.400 151.063 302.400 C 89.172 302.400,38.413 302.520,38.267 302.667 " stroke="none" fill="#cdeefb" fill-rule="evenodd"></path><path id="path1" d="M33.200 97.600 C 33.200 97.820,33.661 98.000,34.224 98.000 C 34.804 98.000,35.140 97.827,35.000 97.600 C 34.864 97.380,34.403 97.200,33.976 97.200 C 33.549 97.200,33.200 97.380,33.200 97.600 M37.300 97.700 C 37.431 98.092,43.469 98.222,65.333 98.303 C 83.448 98.369,93.200 98.544,93.200 98.803 C 93.200 99.021,92.847 99.200,92.415 99.200 C 86.423 99.200,74.180 107.811,68.977 115.685 C 62.681 125.214,62.416 127.149,62.407 163.700 L 62.400 192.800 68.911 192.800 C 74.157 192.800,75.595 192.679,76.311 192.177 L 77.200 191.555 77.200 174.605 L 77.200 157.654 78.362 156.827 C 80.106 155.585,88.966 155.587,90.546 156.829 L 91.600 157.658 91.600 200.000 L 91.600 242.342 90.546 243.171 C 88.966 244.413,80.106 244.415,78.362 243.173 L 77.200 242.346 77.200 225.395 L 77.200 208.445 76.311 207.823 C 75.595 207.321,74.157 207.200,68.911 207.200 L 62.400 207.200 62.407 236.300 C 62.416 272.976,62.636 274.571,69.054 284.400 C 74.103 292.134,86.447 300.800,92.415 300.800 C 92.847 300.800,93.200 300.980,93.200 301.200 C 93.200 301.463,83.811 301.600,65.833 301.600 C 39.216 301.600,36.948 301.669,37.438 302.461 C 37.579 302.689,37.886 302.660,38.213 302.389 C 38.610 302.060,68.891 301.877,151.377 301.706 L 264.000 301.473 264.000 302.376 C 264.000 303.348,260.155 311.128,258.319 313.872 C 257.704 314.792,257.200 315.737,257.200 315.972 C 257.200 316.207,257.020 316.400,256.800 316.400 C 256.580 316.400,256.400 316.625,256.400 316.900 C 256.399 317.175,255.949 317.923,255.400 318.562 C 254.850 319.201,254.400 319.864,254.400 320.034 C 254.400 320.204,254.169 320.581,253.887 320.871 C 253.605 321.162,252.938 322.030,252.406 322.800 C 251.874 323.570,251.331 324.290,251.201 324.400 C 251.070 324.510,250.093 325.742,249.030 327.137 C 245.897 331.248,236.611 340.436,232.391 343.600 C 231.658 344.150,230.594 344.973,230.029 345.429 C 228.408 346.736,222.766 350.552,220.964 351.560 C 218.311 353.044,217.560 354.753,218.599 356.941 C 219.771 359.411,221.076 359.544,233.000 358.406 C 238.042 357.925,240.360 357.540,247.300 356.030 C 255.139 354.325,265.829 350.233,273.755 345.905 C 275.271 345.077,276.666 344.400,276.855 344.400 C 277.045 344.400,277.200 344.220,277.200 344.000 C 277.200 343.780,277.392 343.600,277.627 343.600 C 278.254 343.600,286.889 337.657,290.600 334.672 C 295.487 330.741,302.886 323.280,306.936 318.200 C 307.988 316.880,309.089 315.506,309.382 315.146 C 310.551 313.708,314.230 308.068,315.984 305.025 L 317.842 301.800 339.821 301.696 C 359.677 301.601,361.846 301.654,362.275 302.238 C 362.644 302.740,363.158 302.830,364.575 302.642 C 365.579 302.509,367.255 302.293,368.300 302.161 C 369.345 302.030,370.371 301.760,370.580 301.561 C 370.789 301.363,371.554 301.200,372.280 301.200 C 373.006 301.200,373.600 301.020,373.600 300.800 C 373.600 300.580,374.039 300.400,374.576 300.400 C 375.113 300.400,375.664 300.220,375.800 300.000 C 375.936 299.780,376.397 299.600,376.824 299.600 C 377.251 299.600,377.600 299.420,377.600 299.200 C 377.600 298.980,377.960 298.800,378.400 298.800 C 378.840 298.800,379.200 298.620,379.200 298.400 C 379.200 298.180,379.560 298.000,380.000 298.000 C 380.440 298.000,380.800 297.820,380.800 297.600 C 380.800 297.380,381.036 297.200,381.325 297.200 C 381.613 297.200,382.236 296.840,382.708 296.400 C 383.180 295.960,383.730 295.600,383.930 295.600 C 384.129 295.600,385.288 294.655,386.504 293.500 C 387.720 292.345,389.049 291.115,389.458 290.767 C 390.695 289.712,392.400 287.634,392.400 287.180 C 392.400 286.945,392.580 286.864,392.800 287.000 C 393.020 287.136,393.200 287.001,393.200 286.699 C 393.200 286.398,393.560 285.764,394.000 285.292 C 394.440 284.820,394.800 284.233,394.800 283.988 C 394.800 283.743,395.070 283.273,395.399 282.943 C 395.729 282.614,396.117 281.862,396.261 281.272 C 396.405 280.682,396.630 280.110,396.762 280.000 C 397.234 279.604,398.000 277.998,398.000 277.405 C 398.000 277.072,398.180 276.800,398.400 276.800 C 398.620 276.800,398.800 276.296,398.800 275.680 C 398.800 275.064,399.025 274.335,399.300 274.060 C 400.034 273.326,400.034 126.674,399.300 125.940 C 399.025 125.665,398.800 124.936,398.800 124.320 C 398.800 123.704,398.620 123.200,398.400 123.200 C 398.180 123.200,398.000 122.928,398.000 122.595 C 398.000 122.002,397.234 120.396,396.762 120.000 C 396.630 119.890,396.405 119.318,396.261 118.728 C 396.117 118.138,395.729 117.386,395.399 117.057 C 395.070 116.727,394.800 116.174,394.800 115.829 C 394.800 115.483,394.650 115.200,394.468 115.200 C 394.285 115.200,393.880 114.710,393.568 114.111 C 393.103 113.219,391.619 111.444,389.704 109.490 C 387.958 107.708,384.200 104.400,383.922 104.400 C 383.727 104.400,383.180 104.040,382.708 103.600 C 382.236 103.160,381.613 102.800,381.325 102.800 C 381.036 102.800,380.800 102.620,380.800 102.400 C 380.800 102.180,380.440 102.000,380.000 102.000 C 379.560 102.000,379.200 101.820,379.200 101.600 C 379.200 101.380,378.840 101.200,378.400 101.200 C 377.960 101.200,377.600 101.020,377.600 100.800 C 377.600 100.580,377.251 100.400,376.824 100.400 C 376.397 100.400,375.936 100.220,375.800 100.000 C 375.664 99.780,375.113 99.600,374.576 99.600 C 374.039 99.600,373.600 99.458,373.600 99.285 C 373.600 99.112,373.022 98.926,372.316 98.872 C 371.609 98.818,370.934 98.636,370.816 98.468 C 370.697 98.299,369.790 98.110,368.800 98.049 C 367.810 97.987,366.829 97.771,366.620 97.568 C 365.934 96.903,362.514 97.126,362.235 97.853 C 361.910 98.700,39.160 98.520,38.313 97.673 C 37.691 97.051,37.089 97.068,37.300 97.700 M10.466 109.041 C 9.733 109.788,9.294 110.400,9.491 110.400 C 9.940 110.400,12.204 108.068,11.971 107.845 C 11.877 107.755,11.200 108.293,10.466 109.041 M35.854 156.829 L 34.800 157.658 34.800 199.980 C 34.800 238.964,34.852 242.345,35.465 242.851 C 36.067 243.347,36.086 243.316,35.665 242.526 C 35.320 241.878,35.200 230.866,35.200 199.826 C 35.200 150.241,34.199 156.278,42.392 156.470 C 45.435 156.542,47.841 156.465,47.739 156.300 C 47.254 155.519,36.936 155.978,35.854 156.829 M152.926 156.465 C 154.618 157.367,154.775 157.969,154.775 163.600 C 154.775 171.443,157.365 170.562,133.603 170.800 C 117.968 170.957,113.526 171.113,113.120 171.520 C 112.136 172.504,112.393 191.409,113.400 192.170 C 114.088 192.690,116.922 192.776,133.574 192.787 C 157.168 192.803,154.800 192.004,154.800 199.944 C 154.800 204.942,154.735 205.418,153.930 206.274 L 153.061 207.200 133.502 207.200 C 115.725 207.200,113.882 207.261,113.271 207.871 C 112.381 208.761,112.243 227.602,113.120 228.480 C 113.526 228.887,117.968 229.043,133.603 229.200 C 157.365 229.438,154.775 228.557,154.775 236.400 C 154.775 242.031,154.618 242.633,152.926 243.535 C 151.715 244.180,100.877 244.200,99.463 243.556 C 97.568 242.692,97.600 243.448,97.600 200.000 C 97.600 156.945,97.585 157.320,99.346 156.468 C 100.621 155.850,151.767 155.848,152.926 156.465 M174.038 156.827 L 175.200 157.654 175.213 192.527 C 175.224 222.999,175.302 227.501,175.830 228.200 C 176.416 228.976,177.023 229.006,196.397 229.200 C 212.008 229.356,216.474 229.513,216.880 229.919 C 217.245 230.283,217.439 232.158,217.529 236.211 L 217.659 241.984 216.571 242.992 L 215.483 244.000 189.303 244.000 C 163.477 244.000,163.108 243.989,161.962 243.173 L 160.800 242.346 160.800 200.006 L 160.800 157.667 161.900 156.846 C 163.557 155.610,172.310 155.596,174.038 156.827 M236.537 156.444 C 238.419 157.302,238.400 156.920,238.400 193.370 C 238.400 224.993,238.456 227.948,239.061 228.451 C 239.594 228.894,243.547 229.039,259.494 229.200 C 281.817 229.426,280.103 229.145,280.631 232.666 C 281.272 236.941,280.659 242.029,279.379 243.053 L 278.200 243.996 251.958 243.998 L 225.717 244.000 224.658 243.019 L 223.600 242.038 223.600 200.000 L 223.600 157.962 224.658 156.981 C 225.846 155.880,234.446 155.491,236.537 156.444 M326.000 156.575 C 327.353 156.845,328.646 157.310,330.095 158.047 C 330.477 158.241,331.062 158.400,331.395 158.400 C 331.728 158.400,332.000 158.536,332.000 158.702 C 332.000 158.869,332.508 159.230,333.130 159.505 C 336.039 160.792,340.283 165.873,341.898 170.000 C 343.160 173.225,343.200 174.156,343.200 200.000 C 343.200 225.844,343.160 226.775,341.898 230.000 C 339.592 235.893,335.230 239.977,328.200 242.822 C 324.257 244.418,306.241 244.351,301.400 242.723 C 294.495 240.400,288.680 234.024,286.980 226.908 C 286.174 223.537,286.174 176.463,286.980 173.092 C 288.687 165.948,294.849 159.199,301.400 157.299 C 302.280 157.044,303.720 156.661,304.600 156.448 C 306.357 156.024,323.758 156.127,326.000 156.575 M363.571 156.585 C 365.260 157.459,365.200 156.218,365.200 189.979 C 365.200 227.943,366.156 223.600,357.800 223.600 C 349.442 223.600,350.394 227.934,350.428 190.046 C 350.457 157.201,350.446 157.443,352.020 156.571 C 353.435 155.787,362.049 155.798,363.571 156.585 M48.778 157.474 C 49.053 158.043,49.200 164.042,49.200 174.685 C 49.200 191.653,49.307 192.800,50.898 192.800 C 51.147 192.800,50.957 192.433,50.475 191.984 C 49.602 191.171,49.600 191.128,49.600 174.661 C 49.600 160.326,49.518 158.051,48.978 157.376 C 48.377 156.626,48.370 156.630,48.778 157.474 M306.663 171.069 C 304.434 171.335,301.753 174.085,301.409 176.459 C 301.271 177.416,301.212 188.640,301.279 201.400 L 301.400 224.600 302.316 225.884 C 304.500 228.947,304.720 229.000,315.167 229.000 C 322.305 229.000,324.573 228.881,324.700 228.500 C 324.792 228.225,325.094 228.000,325.371 228.000 C 326.012 228.000,326.889 227.013,327.959 225.088 C 328.787 223.599,328.800 223.208,328.800 200.026 L 328.800 176.476 327.900 174.784 C 326.017 171.245,325.434 171.053,316.259 170.964 C 311.827 170.921,307.508 170.969,306.663 171.069 M49.823 208.089 C 49.284 208.858,49.200 211.176,49.200 225.315 C 49.200 235.958,49.053 241.957,48.778 242.526 C 48.370 243.370,48.377 243.374,48.978 242.624 C 49.518 241.949,49.600 239.674,49.600 225.339 C 49.600 208.872,49.602 208.829,50.475 208.016 C 50.957 207.567,51.147 207.200,50.898 207.200 C 50.649 207.200,50.165 207.600,49.823 208.089 M364.371 229.054 C 365.122 230.008,365.200 230.647,365.200 235.821 C 365.200 243.981,365.183 244.000,357.800 244.000 C 350.455 244.000,350.414 243.953,350.405 235.554 C 350.398 227.831,350.232 228.000,357.800 228.000 C 363.527 228.000,363.544 228.003,364.371 229.054 M36.662 243.700 C 36.764 243.865,39.256 244.000,42.200 244.000 C 45.144 244.000,47.636 243.865,47.738 243.700 C 47.840 243.535,45.348 243.400,42.200 243.400 C 39.052 243.400,36.560 243.535,36.662 243.700 M10.000 290.258 C 10.000 290.477,10.450 291.047,11.000 291.525 C 11.550 292.003,12.000 292.247,12.000 292.067 C 12.000 291.887,11.550 291.317,11.000 290.800 C 10.450 290.283,10.000 290.039,10.000 290.258 " stroke="none" fill="#fb5393" fill-rule="evenodd"></path><path id="path2" d="M35.000 97.600 C 35.157 97.853,34.130 98.000,32.200 98.000 C 30.270 98.000,29.243 98.147,29.400 98.400 C 29.544 98.633,29.137 98.800,28.424 98.800 C 27.751 98.800,27.200 98.999,27.200 99.243 C 27.200 99.486,26.935 99.584,26.612 99.460 C 26.288 99.336,25.761 99.496,25.440 99.817 C 25.119 100.138,24.484 100.400,24.029 100.400 C 23.573 100.400,23.200 100.550,23.200 100.733 C 23.200 100.917,22.975 101.074,22.700 101.082 C 21.683 101.115,20.983 101.418,20.353 102.100 C 19.997 102.485,19.412 102.800,19.053 102.800 C 18.694 102.800,18.400 102.980,18.400 103.200 C 18.400 103.420,18.175 103.555,17.900 103.500 C 17.625 103.445,17.445 103.625,17.500 103.900 C 17.555 104.175,17.465 104.379,17.300 104.353 C 16.216 104.181,14.791 105.214,11.876 108.285 C 10.996 109.212,10.079 109.858,9.838 109.721 C 9.597 109.584,9.517 109.602,9.659 109.762 C 9.801 109.921,9.224 110.760,8.375 111.626 C 7.526 112.492,7.032 113.200,7.277 113.200 C 7.522 113.200,7.346 113.526,6.886 113.925 C 6.426 114.324,5.994 114.903,5.925 115.211 C 5.856 115.519,5.405 116.215,4.921 116.758 C 4.438 117.301,4.134 117.893,4.245 118.073 C 4.356 118.253,4.257 118.400,4.024 118.400 C 3.791 118.400,3.600 118.861,3.600 119.424 C 3.600 120.004,3.427 120.340,3.200 120.200 C 2.980 120.064,2.800 120.323,2.800 120.776 C 2.800 121.229,2.620 121.600,2.400 121.600 C 2.180 121.600,2.000 122.140,2.000 122.800 C 2.000 123.460,1.820 124.000,1.600 124.000 C 1.380 124.000,1.200 124.360,1.200 124.800 C 1.200 125.240,0.975 125.603,0.700 125.606 C 0.334 125.611,0.346 125.705,0.745 125.958 C 1.206 126.249,1.206 126.331,0.745 126.485 C -0.119 126.773,-0.064 273.062,0.800 273.608 C 1.333 273.946,1.333 273.989,0.800 274.000 C 0.447 274.007,0.365 274.133,0.600 274.306 C 1.304 274.824,2.000 276.358,2.000 277.395 C 2.000 277.948,2.180 278.400,2.400 278.400 C 2.620 278.400,2.800 278.760,2.800 279.200 C 2.800 279.640,2.980 280.000,3.200 280.000 C 3.420 280.000,3.600 280.360,3.600 280.800 C 3.600 281.240,3.791 281.600,4.024 281.600 C 4.257 281.600,4.336 281.780,4.200 282.000 C 4.064 282.220,4.102 282.400,4.285 282.400 C 4.468 282.400,4.974 283.075,5.408 283.900 C 5.843 284.725,6.425 285.640,6.703 285.932 C 6.980 286.225,7.087 286.675,6.940 286.932 C 6.792 287.190,6.816 287.269,6.993 287.110 C 7.169 286.950,7.887 287.626,8.588 288.612 C 9.289 289.598,9.958 290.309,10.074 290.192 C 10.191 290.076,10.897 290.673,11.643 291.520 C 12.389 292.367,13.495 293.382,14.100 293.776 C 14.705 294.170,15.214 294.786,15.232 295.146 C 15.251 295.543,15.341 295.608,15.461 295.311 C 15.596 294.979,15.994 295.133,16.702 295.790 C 17.276 296.322,17.893 296.666,18.073 296.555 C 18.253 296.444,18.400 296.543,18.400 296.776 C 18.400 297.009,18.694 297.200,19.053 297.200 C 19.412 297.200,20.042 297.588,20.453 298.061 C 20.864 298.535,21.200 298.708,21.200 298.446 C 21.200 298.180,21.587 298.330,22.075 298.784 C 22.557 299.233,23.380 299.600,23.904 299.600 C 24.428 299.600,25.119 299.862,25.440 300.183 C 25.761 300.504,26.288 300.664,26.612 300.540 C 26.935 300.416,27.200 300.514,27.200 300.757 C 27.200 301.007,27.941 301.212,28.900 301.228 C 30.217 301.250,30.420 301.334,29.800 301.600 C 29.235 301.843,29.733 301.952,31.500 301.972 C 32.881 301.987,34.000 302.179,34.000 302.400 C 34.000 302.620,34.821 302.800,35.824 302.800 C 36.827 302.800,37.548 302.639,37.426 302.442 C 36.950 301.671,39.358 301.600,65.833 301.600 C 83.811 301.600,93.200 301.463,93.200 301.200 C 93.200 300.980,92.847 300.800,92.415 300.800 C 86.447 300.800,74.103 292.134,69.054 284.400 C 62.636 274.571,62.416 272.976,62.407 236.300 L 62.400 207.200 56.875 207.200 C 48.805 207.200,49.600 205.208,49.600 225.435 L 49.600 242.038 48.542 243.019 C 47.037 244.413,37.861 244.525,35.962 243.173 L 34.800 242.346 34.800 200.002 L 34.800 157.658 35.854 156.829 C 37.582 155.470,47.033 155.583,48.542 156.981 L 49.600 157.962 49.600 174.565 C 49.600 194.792,48.805 192.800,56.875 192.800 L 62.400 192.800 62.407 163.700 C 62.416 127.149,62.681 125.214,68.977 115.685 C 74.180 107.811,86.423 99.200,92.415 99.200 C 92.847 99.200,93.200 99.020,93.200 98.800 C 93.200 98.537,83.662 98.400,65.387 98.400 C 41.034 98.400,37.546 98.325,37.345 97.800 C 37.212 97.454,36.614 97.200,35.934 97.200 C 35.248 97.200,34.857 97.368,35.000 97.600 " stroke="none" fill="#fc0464" fill-rule="evenodd"></path><path id="path3" d="M38.413 97.773 C 38.944 98.304,362.089 98.330,362.266 97.800 C 362.355 97.534,308.162 97.400,200.220 97.400 C 99.816 97.400,38.182 97.542,38.413 97.773 M79.060 156.300 C 78.958 156.465,80.522 156.552,82.537 156.493 C 89.153 156.301,89.887 156.145,84.524 156.072 C 81.622 156.032,79.163 156.135,79.060 156.300 M113.129 156.300 C 120.460 156.361,132.340 156.361,139.529 156.300 C 146.718 156.239,140.720 156.189,126.200 156.189 C 111.680 156.189,105.798 156.239,113.129 156.300 M165.300 156.297 C 166.785 156.374,169.215 156.374,170.700 156.297 C 172.185 156.220,170.970 156.157,168.000 156.157 C 165.030 156.157,163.815 156.220,165.300 156.297 M228.100 156.297 C 229.585 156.374,232.015 156.374,233.500 156.297 C 234.985 156.220,233.770 156.157,230.800 156.157 C 227.830 156.157,226.615 156.220,228.100 156.297 M310.523 156.299 C 313.120 156.369,317.260 156.368,319.723 156.298 C 322.185 156.228,320.060 156.171,315.000 156.172 C 309.940 156.172,307.925 156.229,310.523 156.299 M355.317 156.297 C 356.811 156.374,359.151 156.374,360.517 156.296 C 361.882 156.218,360.660 156.155,357.800 156.155 C 354.940 156.156,353.822 156.220,355.317 156.297 M364.991 189.800 C 364.991 207.400,365.040 214.542,365.100 205.670 C 365.160 196.799,365.160 182.399,365.100 173.670 C 365.040 164.942,364.991 172.200,364.991 189.800 M97.793 200.000 C 97.793 222.990,97.841 232.395,97.900 220.900 C 97.959 209.405,97.959 190.595,97.900 179.100 C 97.841 167.605,97.793 177.010,97.793 200.000 M238.191 192.800 C 238.191 211.830,238.240 219.615,238.300 210.100 C 238.360 200.585,238.360 185.015,238.300 175.500 C 238.240 165.985,238.191 173.770,238.191 192.800 M350.591 190.000 C 350.591 207.490,350.640 214.645,350.700 205.900 C 350.760 197.155,350.760 182.845,350.700 174.100 C 350.640 165.355,350.591 172.510,350.591 190.000 M292.378 163.100 L 291.000 164.600 292.500 163.222 C 293.896 161.938,294.184 161.600,293.878 161.600 C 293.812 161.600,293.137 162.275,292.378 163.100 M336.000 161.725 C 336.000 161.794,336.585 162.379,337.300 163.025 L 338.600 164.200 337.425 162.900 C 336.330 161.688,336.000 161.416,336.000 161.725 M286.588 200.000 C 286.588 213.970,286.639 219.685,286.700 212.700 C 286.761 205.715,286.761 194.285,286.700 187.300 C 286.639 180.315,286.588 186.030,286.588 200.000 M300.987 200.000 C 300.987 212.870,301.038 218.135,301.100 211.700 C 301.162 205.265,301.162 194.735,301.100 188.300 C 301.038 181.865,300.987 187.130,300.987 200.000 M53.900 193.097 C 55.495 193.173,58.105 193.173,59.700 193.097 C 61.295 193.021,59.990 192.959,56.800 192.959 C 53.610 192.959,52.305 193.021,53.900 193.097 M53.900 207.097 C 55.495 207.173,58.105 207.173,59.700 207.097 C 61.295 207.021,59.990 206.959,56.800 206.959 C 53.610 206.959,52.305 207.021,53.900 207.097 M350.560 235.800 C 350.561 239.100,350.622 240.397,350.698 238.682 C 350.773 236.967,350.772 234.267,350.697 232.682 C 350.621 231.097,350.559 232.500,350.560 235.800 M364.961 236.000 C 364.961 239.410,365.022 240.805,365.097 239.100 C 365.172 237.395,365.172 234.605,365.097 232.900 C 365.022 231.195,364.961 232.590,364.961 236.000 M217.358 236.600 C 217.358 239.680,217.421 240.887,217.497 239.282 C 217.573 237.678,217.573 235.158,217.496 233.682 C 217.419 232.207,217.357 233.520,217.358 236.600 M280.550 236.600 C 280.551 239.020,280.616 239.958,280.696 238.685 C 280.776 237.412,280.775 235.432,280.694 234.285 C 280.614 233.138,280.549 234.180,280.550 236.600 M336.975 237.300 L 335.800 238.600 337.100 237.425 C 337.815 236.779,338.400 236.194,338.400 236.125 C 338.400 235.816,338.070 236.088,336.975 237.300 M79.151 243.712 C 79.324 243.884,81.790 243.974,84.632 243.911 L 89.800 243.797 84.319 243.598 C 81.304 243.489,78.979 243.541,79.151 243.712 M189.200 243.600 L 162.600 243.809 189.076 243.904 C 206.400 243.967,215.638 243.862,215.800 243.600 C 215.936 243.380,215.992 243.243,215.924 243.296 C 215.856 243.348,203.830 243.485,189.200 243.600 M113.129 243.900 C 120.460 243.961,132.340 243.961,139.529 243.900 C 146.718 243.839,140.720 243.789,126.200 243.789 C 111.680 243.789,105.798 243.839,113.129 243.900 M238.700 243.900 C 246.015 243.961,257.985 243.961,265.300 243.900 C 272.615 243.839,266.630 243.789,252.000 243.789 C 237.370 243.789,231.385 243.839,238.700 243.900 M310.523 243.899 C 313.120 243.969,317.260 243.968,319.723 243.898 C 322.185 243.828,320.060 243.771,315.000 243.772 C 309.940 243.772,307.925 243.829,310.523 243.899 M355.317 243.897 C 356.811 243.974,359.151 243.974,360.517 243.896 C 361.882 243.818,360.660 243.755,357.800 243.755 C 354.940 243.756,353.822 243.820,355.317 243.897 M68.617 301.900 C 52.127 301.958,38.501 302.139,38.337 302.303 C 38.174 302.466,88.790 302.554,150.817 302.499 L 263.595 302.397 262.923 304.099 C 260.916 309.183,254.064 320.134,248.851 326.587 C 242.251 334.759,231.232 344.673,223.473 349.421 C 220.048 351.517,218.206 353.020,218.085 353.819 C 217.993 354.427,218.119 354.364,218.656 353.533 C 219.035 352.946,220.078 352.056,220.973 351.555 C 222.767 350.551,228.412 346.733,230.029 345.429 C 230.594 344.973,231.658 344.150,232.391 343.600 C 236.611 340.436,245.897 331.248,249.030 327.137 C 250.093 325.742,251.070 324.510,251.201 324.400 C 251.331 324.290,251.874 323.570,252.406 322.800 C 252.938 322.030,253.605 321.162,253.887 320.871 C 254.169 320.581,254.400 320.204,254.400 320.034 C 254.400 319.864,254.850 319.201,255.400 318.562 C 255.949 317.923,256.399 317.175,256.400 316.900 C 256.400 316.625,256.580 316.400,256.800 316.400 C 257.020 316.400,257.200 316.207,257.200 315.972 C 257.200 315.737,257.704 314.792,258.319 313.872 C 260.098 311.214,264.000 303.361,264.000 302.440 L 264.000 301.600 181.300 301.697 C 135.815 301.751,85.108 301.842,68.617 301.900 M317.715 302.097 C 317.502 302.373,316.726 303.680,315.991 305.000 C 314.697 307.326,310.491 313.784,309.391 315.135 C 309.093 315.501,307.988 316.880,306.936 318.200 C 302.886 323.280,295.487 330.741,290.600 334.672 C 286.889 337.657,278.254 343.600,277.627 343.600 C 277.392 343.600,277.200 343.780,277.200 344.000 C 277.200 344.220,277.045 344.400,276.855 344.400 C 276.666 344.400,275.271 345.077,273.755 345.905 C 265.829 350.233,255.139 354.325,247.300 356.030 C 240.360 357.540,238.042 357.925,233.000 358.406 C 220.142 359.633,219.654 359.547,218.104 355.800 L 217.607 354.600 217.831 356.000 C 218.222 358.438,220.018 359.601,223.385 359.595 C 230.778 359.582,243.534 357.746,250.800 355.649 C 251.570 355.427,252.830 355.076,253.600 354.870 C 255.319 354.410,258.685 353.293,259.900 352.780 C 260.395 352.571,261.205 352.244,261.700 352.054 C 283.870 343.519,305.290 325.097,316.769 304.693 L 318.066 302.387 340.233 302.493 C 354.881 302.564,362.355 302.464,362.267 302.200 C 362.052 301.556,318.211 301.454,317.715 302.097 " stroke="none" fill="#e599c1" fill-rule="evenodd"></path><path id="path4" d="M37.200 156.668 C 35.059 157.512,35.200 154.452,35.200 200.000 L 35.200 241.876 36.042 242.638 C 36.781 243.307,37.534 243.400,42.200 243.400 C 49.969 243.400,49.200 245.404,49.200 225.167 L 49.200 208.458 50.254 207.629 C 50.920 207.105,51.090 206.800,50.716 206.800 C 48.845 206.800,48.800 207.220,48.800 224.758 C 48.800 235.363,48.652 241.529,48.386 242.026 C 48.006 242.736,47.497 242.800,42.200 242.800 C 36.903 242.800,36.394 242.736,36.014 242.026 C 35.438 240.951,35.438 159.049,36.014 157.974 C 36.394 157.264,36.903 157.200,42.200 157.200 C 47.497 157.200,48.006 157.264,48.386 157.974 C 48.652 158.471,48.800 164.658,48.800 175.312 C 48.800 193.025,48.819 193.200,50.785 193.200 C 51.073 193.200,50.834 192.827,50.254 192.371 L 49.200 191.542 49.200 174.833 C 49.200 154.703,49.892 156.641,42.659 156.516 C 39.987 156.469,37.530 156.538,37.200 156.668 M78.254 157.229 L 77.200 158.058 77.200 174.961 L 77.200 191.865 76.300 192.333 C 75.749 192.619,72.843 192.843,68.800 192.911 L 62.200 193.021 69.238 193.111 C 78.627 193.230,77.600 195.395,77.600 175.487 C 77.600 164.008,77.736 158.939,78.064 158.219 L 78.528 157.200 84.384 157.200 C 88.405 157.200,90.390 157.350,90.720 157.680 C 91.416 158.376,91.416 241.624,90.720 242.320 C 90.390 242.650,88.405 242.800,84.384 242.800 L 78.528 242.800 78.064 241.781 C 77.736 241.061,77.600 235.975,77.600 224.443 C 77.600 204.592,78.645 206.768,69.169 206.889 L 62.200 206.979 68.800 207.089 C 72.843 207.157,75.749 207.381,76.300 207.667 L 77.200 208.135 77.200 225.039 L 77.200 241.942 78.254 242.771 C 79.824 244.006,89.572 244.028,90.800 242.800 C 91.590 242.010,91.600 241.467,91.600 200.000 C 91.600 158.533,91.590 157.990,90.800 157.200 C 89.572 155.972,79.824 155.994,78.254 157.229 M98.800 157.200 C 98.010 157.990,98.000 158.533,98.000 200.000 C 98.000 241.467,98.010 242.010,98.800 242.800 C 99.600 243.600,150.972 244.123,152.982 243.352 C 154.762 242.669,155.617 234.331,154.245 231.046 C 153.469 229.188,153.614 229.200,132.379 229.200 C 115.892 229.200,113.582 229.125,113.029 228.571 C 112.002 227.545,112.095 208.800,113.131 207.862 C 113.791 207.265,115.765 207.200,133.158 207.200 C 144.979 207.200,152.736 207.048,153.184 206.808 C 155.454 205.594,155.454 194.406,153.184 193.192 C 152.736 192.952,144.955 192.800,133.088 192.800 C 114.836 192.800,113.686 192.758,113.062 192.069 C 112.091 190.995,112.060 172.397,113.029 171.429 C 113.582 170.875,115.892 170.800,132.379 170.800 C 153.614 170.800,153.469 170.812,154.245 168.954 C 155.617 165.669,154.762 157.331,152.982 156.648 C 150.972 155.877,99.600 156.400,98.800 157.200 M161.616 157.275 C 160.329 158.656,160.329 241.344,161.616 242.725 L 162.431 243.600 188.971 243.600 C 220.900 243.600,217.272 244.552,217.114 236.211 C 216.965 228.405,219.402 229.213,195.989 229.206 C 179.436 229.201,176.863 229.119,176.089 228.577 L 175.200 227.955 175.200 193.047 L 175.200 158.139 174.274 157.270 C 172.854 155.936,162.859 155.940,161.616 157.275 M224.562 157.242 C 223.823 158.059,223.800 159.342,223.800 200.000 C 223.800 240.658,223.823 241.941,224.562 242.758 C 225.322 243.598,225.388 243.600,252.046 243.600 L 278.769 243.600 279.584 242.725 C 280.779 241.442,280.819 231.806,279.636 230.344 L 278.871 229.400 259.055 229.200 C 243.545 229.043,239.126 228.887,238.720 228.480 C 238.304 228.065,238.160 220.883,238.000 192.748 C 237.805 158.474,237.779 157.520,237.024 156.968 C 235.628 155.948,225.532 156.170,224.562 157.242 M304.400 156.651 C 296.605 158.021,289.455 164.660,287.381 172.452 C 286.538 175.620,286.538 224.380,287.381 227.548 C 289.173 234.281,294.440 239.959,301.200 242.444 C 304.725 243.740,324.172 243.917,328.043 242.688 C 335.200 240.417,341.234 233.771,342.757 226.480 C 343.468 223.079,343.355 175.617,342.630 172.893 C 340.690 165.609,335.521 159.973,328.482 157.469 C 326.277 156.684,307.784 156.056,304.400 156.651 M351.689 157.023 L 350.800 157.645 350.800 189.794 L 350.800 221.942 351.854 222.771 C 353.789 224.293,363.392 223.890,364.494 222.240 C 364.656 221.998,364.791 207.365,364.794 189.723 L 364.800 157.645 363.911 157.023 C 363.217 156.536,361.879 156.400,357.800 156.400 C 353.721 156.400,352.383 156.536,351.689 157.023 M153.750 158.450 C 154.142 160.408,154.043 167.836,153.610 168.974 L 153.220 170.000 133.464 170.000 L 113.709 170.000 112.655 171.055 L 111.600 172.109 111.600 181.601 C 111.600 190.597,111.643 191.147,112.429 192.146 L 113.258 193.200 132.858 193.200 C 156.308 193.200,153.800 192.386,153.800 200.000 C 153.800 207.614,156.308 206.800,132.858 206.800 L 113.258 206.800 112.429 207.854 C 111.643 208.853,111.600 209.403,111.600 218.399 L 111.600 227.891 112.655 228.945 L 113.709 230.000 133.464 230.000 L 153.220 230.000 153.610 231.026 C 154.043 232.164,154.142 239.592,153.750 241.550 L 153.500 242.800 126.340 242.800 L 99.180 242.800 98.790 241.774 C 98.260 240.379,98.260 159.621,98.790 158.226 L 99.180 157.200 126.340 157.200 L 153.500 157.200 153.750 158.450 M174.243 157.900 C 174.675 158.469,174.777 165.109,174.787 193.471 L 174.800 228.342 175.854 229.171 C 176.887 229.984,177.286 230.000,196.374 230.000 C 210.981 230.000,215.960 230.120,216.320 230.480 C 216.825 230.985,217.027 240.942,216.557 242.167 C 216.164 243.192,162.536 243.126,161.757 242.100 C 161.000 241.104,160.941 159.203,161.696 157.995 C 162.409 156.853,173.386 156.770,174.243 157.900 M237.200 192.400 C 237.410 229.223,237.379 228.625,239.183 229.591 C 239.674 229.854,246.882 230.000,259.325 230.000 C 275.355 230.000,278.782 230.096,279.162 230.555 C 279.474 230.931,279.587 232.959,279.511 236.855 L 279.400 242.600 252.000 242.600 L 224.600 242.600 224.497 200.400 C 224.440 177.190,224.481 157.970,224.588 157.690 C 224.737 157.300,226.224 157.205,230.891 157.290 L 237.000 157.400 237.200 192.400 M327.000 157.600 C 327.136 157.820,327.676 158.000,328.200 158.000 C 328.724 158.000,329.264 158.180,329.400 158.400 C 329.536 158.620,329.997 158.800,330.424 158.800 C 330.851 158.800,331.200 158.936,331.200 159.102 C 331.200 159.269,331.785 159.659,332.500 159.970 C 334.063 160.649,339.600 166.121,339.600 166.987 C 339.600 167.324,339.736 167.600,339.902 167.600 C 340.069 167.600,340.444 168.185,340.736 168.900 C 341.028 169.615,341.420 170.560,341.606 171.000 C 342.442 172.971,342.542 176.063,342.542 200.000 C 342.542 223.937,342.442 227.029,341.606 229.000 C 341.420 229.440,341.028 230.385,340.736 231.100 C 340.444 231.815,340.069 232.400,339.902 232.400 C 339.736 232.400,339.600 232.676,339.600 233.013 C 339.600 233.879,334.063 239.351,332.500 240.030 C 331.785 240.341,331.200 240.731,331.200 240.898 C 331.200 241.064,330.851 241.200,330.424 241.200 C 329.997 241.200,329.536 241.380,329.400 241.600 C 329.264 241.820,328.724 242.000,328.200 242.000 C 327.676 242.000,327.136 242.180,327.000 242.400 C 326.262 243.594,301.804 242.738,300.541 241.474 C 300.390 241.323,300.017 241.200,299.711 241.200 C 298.386 241.200,291.600 235.857,291.600 234.813 C 291.600 234.586,291.447 234.400,291.260 234.400 C 290.918 234.400,288.952 230.608,287.942 228.000 C 287.505 226.872,287.400 221.429,287.400 200.000 C 287.400 178.571,287.505 173.128,287.942 172.000 C 289.939 166.843,292.352 163.442,295.600 161.203 C 296.370 160.673,297.090 160.140,297.200 160.019 C 297.417 159.780,299.312 158.875,300.600 158.394 C 301.040 158.230,301.850 157.906,302.400 157.675 C 303.729 157.116,326.657 157.046,327.000 157.600 M364.157 157.833 C 364.786 159.472,364.414 221.529,363.771 222.171 C 363.263 222.680,362.124 222.800,357.800 222.800 C 353.476 222.800,352.337 222.680,351.829 222.171 C 351.000 221.343,350.855 158.505,351.680 157.680 C 352.481 156.879,363.845 157.018,364.157 157.833 M306.000 170.363 C 305.670 170.537,304.860 170.959,304.200 171.300 C 303.540 171.641,302.460 172.673,301.800 173.594 L 300.600 175.268 300.491 199.419 C 300.346 231.436,299.653 229.982,315.067 229.994 C 324.767 230.002,326.757 229.316,328.680 225.303 C 329.776 223.015,329.791 176.515,328.696 174.512 C 326.558 170.601,324.662 169.994,314.667 170.024 C 310.230 170.036,306.330 170.189,306.000 170.363 M324.042 171.205 C 328.898 172.554,328.797 171.943,328.797 200.000 C 328.797 231.468,330.002 229.000,314.639 229.000 L 305.400 229.000 303.936 227.880 C 300.901 225.558,301.014 226.561,300.883 200.800 C 300.723 169.121,299.884 170.953,314.600 170.857 C 319.000 170.828,323.249 170.985,324.042 171.205 M352.200 228.478 C 350.874 229.230,350.812 229.565,350.806 236.077 C 350.798 243.982,350.444 243.600,357.800 243.600 C 365.163 243.600,364.800 243.995,364.800 235.993 C 364.800 227.709,365.043 227.995,358.025 228.012 C 355.039 228.019,352.675 228.208,352.200 228.478 M363.771 229.429 C 364.416 230.074,364.737 240.657,364.157 242.167 C 363.845 242.982,352.481 243.121,351.680 242.320 C 350.891 241.531,351.022 230.236,351.829 229.429 C 352.751 228.506,362.849 228.506,363.771 229.429 M299.200 327.400 C 298.228 328.390,297.523 329.200,297.633 329.200 C 297.743 329.200,298.628 328.390,299.600 327.400 C 300.572 326.410,301.277 325.600,301.167 325.600 C 301.057 325.600,300.172 326.410,299.200 327.400 " stroke="none" fill="#fbb1cc" fill-rule="evenodd"></path></g></svg>